<svg version="1.1" id="Layer_1" xmlns="http://www.w3.org/2000/svg" xmlns:xlink="http://www.w3.org/1999/xlink" x="0px" y="0px"
	 width="100%" viewBox="0 0 534 534" enable-background="new 0 0 534 534" xml:space="preserve">
<path fill="#47704C" opacity="1.000000" stroke="none" 
	d="
M367.000000,535.000000 
	C244.695160,535.000000 122.890327,535.000000 1.042743,535.000000 
	C1.042743,357.070129 1.042743,179.140259 1.042743,1.105191 
	C178.888184,1.105191 356.776459,1.105191 534.832397,1.105191 
	C534.832397,178.999863 534.832397,356.999908 534.832397,535.000000 
	C479.140167,535.000000 423.320099,535.000000 367.000000,535.000000 
M43.961365,236.022858 
	C42.293304,239.970230 40.625248,243.917618 38.342125,248.199127 
	C34.222630,256.909332 29.347561,265.352692 26.155861,274.390533 
	C21.015444,288.946594 21.097973,304.120972 22.918131,319.384125 
	C24.864662,335.707001 30.453638,350.744385 39.145283,364.425812 
	C49.300117,380.410461 64.584160,390.948273 80.700104,400.255066 
	C86.560677,403.639496 87.199440,404.967255 85.136681,411.613892 
	C82.076332,421.475006 78.484917,431.211731 76.108871,441.235901 
	C71.847702,459.213165 78.461494,468.329498 94.916496,475.038849 
	C110.606255,481.436188 126.825478,481.147827 142.989746,477.744812 
	C149.084991,476.461609 155.842331,474.665131 159.009323,468.309326 
	C162.502487,461.298859 163.856812,453.790039 162.507751,445.828278 
	C161.587097,440.394775 161.381165,434.840210 160.882690,429.622528 
	C192.996933,431.987549 224.338043,434.295624 255.172668,436.566406 
	C256.122528,450.656433 257.146759,464.495911 257.959473,478.347839 
	C258.570404,488.761108 264.222473,495.177856 273.812622,497.968750 
	C292.778656,503.488251 311.824738,503.118134 329.790558,494.826019 
	C344.684357,487.951813 350.107910,479.552094 348.788666,463.615021 
	C347.641144,449.752197 344.934479,436.000366 342.475494,422.278595 
	C341.946716,419.327942 342.459045,418.132904 344.916687,416.982605 
	C349.393890,414.887207 353.819824,412.671600 358.189667,410.359650 
	C373.686066,402.161011 389.149750,393.900574 404.744843,385.600189 
	C405.139282,388.199402 405.646484,391.077972 406.000244,393.975281 
	C406.624695,399.089172 408.743896,403.561005 413.888611,404.828766 
	C422.579620,406.970367 431.458130,409.538391 440.284546,409.641602 
	C451.253723,409.769897 462.099396,407.248291 471.165619,399.970062 
	C481.471283,391.696808 487.300262,381.337921 484.780884,367.977875 
	C481.809082,352.218414 477.807953,336.655609 474.542664,320.947327 
	C473.613647,316.478241 471.767822,311.884186 475.109833,307.273346 
	C483.108734,296.237488 490.790283,284.972229 498.664581,273.845337 
	C506.354614,262.978851 514.075928,252.181213 517.601624,239.007355 
	C518.756226,234.692963 517.438171,231.349594 513.932739,229.839828 
	C511.345367,228.725449 507.476837,228.668762 504.899780,229.792923 
	C495.762451,233.778824 486.934326,238.473633 477.905548,242.135971 
	C476.592865,238.046829 475.280212,233.957703 473.676941,229.217407 
	C473.469788,228.775848 473.271484,228.329865 473.054138,227.893356 
	C469.744263,221.245743 466.431824,214.599380 463.273834,207.266693 
	C463.007416,205.816376 463.148804,204.103821 462.411041,202.956635 
	C455.598358,192.363495 449.345032,181.299484 441.514557,171.503052 
	C433.586151,161.584122 424.465942,152.497025 415.080322,143.905807 
	C408.752655,138.113663 401.058899,133.813950 393.644287,128.251862 
	C387.821899,125.177132 381.999542,122.102402 375.762085,118.403862 
	C371.170441,116.629913 366.677948,114.516731 361.970062,113.140312 
	C340.758759,106.938797 318.975830,104.977188 296.977936,105.050407 
	C290.702209,105.071297 284.397034,105.380554 278.160431,106.061546 
	C266.404755,107.345200 254.490570,108.108475 242.999176,110.681831 
	C220.812622,115.650238 200.564224,125.290337 181.984665,139.488754 
	C177.014252,143.914490 172.043839,148.340225 166.440552,153.101929 
	C158.956253,163.355072 151.471954,173.608215 143.141205,183.940765 
	C140.352859,183.631134 137.502228,182.809158 134.791580,183.138687 
	C131.226883,183.572052 130.008667,181.715683 129.123138,179.007050 
	C126.802628,171.909012 129.115250,165.604874 132.882248,159.775528 
	C135.206909,156.178177 138.351257,153.115540 140.747665,149.556976 
	C141.657608,148.205750 142.369431,145.609116 141.684937,144.486816 
	C138.565887,139.372894 127.317207,138.409241 122.965248,142.530289 
	C111.995621,152.917862 106.528702,165.637115 107.058960,180.755615 
	C107.196625,184.680771 106.197525,186.704620 101.983887,187.615433 
	C88.876732,190.448593 76.882187,196.214279 65.621826,203.301880 
	C54.661316,210.200745 44.363300,218.009735 38.097527,230.693253 
	C37.794518,235.066391 41.127903,234.840927 43.961365,236.022858 
z"/>
<path fill="#FF2A23" opacity="1.000000" stroke="none" 
	d="
M477.989075,242.899841 
	C486.934326,238.473633 495.762451,233.778824 504.899780,229.792923 
	C507.476837,228.668762 511.345367,228.725449 513.932739,229.839828 
	C517.438171,231.349594 518.756226,234.692963 517.601624,239.007355 
	C514.075928,252.181213 506.354614,262.978851 498.664581,273.845337 
	C490.790283,284.972229 483.108734,296.237488 475.109833,307.273346 
	C471.767822,311.884186 473.613647,316.478241 474.542664,320.947327 
	C477.807953,336.655609 481.809082,352.218414 484.780884,367.977875 
	C487.300262,381.337921 481.471283,391.696808 471.165619,399.970062 
	C462.099396,407.248291 451.253723,409.769897 440.284546,409.641602 
	C431.458130,409.538391 422.579620,406.970367 413.888611,404.828766 
	C408.743896,403.561005 406.624695,399.089172 406.000244,393.975281 
	C405.646484,391.077972 405.139282,388.199402 404.744843,385.600189 
	C389.149750,393.900574 373.686066,402.161011 358.189667,410.359650 
	C353.819824,412.671600 349.393890,414.887207 344.916687,416.982605 
	C342.459045,418.132904 341.946716,419.327942 342.475494,422.278595 
	C344.934479,436.000366 347.641144,449.752197 348.788666,463.615021 
	C350.107910,479.552094 344.684357,487.951813 329.790558,494.826019 
	C311.824738,503.118134 292.778656,503.488251 273.812622,497.968750 
	C264.222473,495.177856 258.570404,488.761108 257.959473,478.347839 
	C257.146759,464.495911 256.122528,450.656433 255.172668,436.566406 
	C224.338043,434.295624 192.996933,431.987549 160.882690,429.622528 
	C161.381165,434.840210 161.587097,440.394775 162.507751,445.828278 
	C163.856812,453.790039 162.502487,461.298859 159.009323,468.309326 
	C155.842331,474.665131 149.084991,476.461609 142.989746,477.744812 
	C126.825478,481.147827 110.606255,481.436188 94.916496,475.038849 
	C78.461494,468.329498 71.847702,459.213165 76.108871,441.235901 
	C78.484917,431.211731 82.076332,421.475006 85.136681,411.613892 
	C87.199440,404.967255 86.560677,403.639496 80.700104,400.255066 
	C64.584160,390.948273 49.300117,380.410461 39.145283,364.425812 
	C30.453638,350.744385 24.864662,335.707001 22.918131,319.384125 
	C21.097973,304.120972 21.015444,288.946594 26.155861,274.390533 
	C29.347561,265.352692 34.222630,256.909332 38.816208,248.344788 
	C44.787502,250.414963 50.158325,253.095047 55.819061,254.041931 
	C61.012302,254.910614 63.788662,256.467987 63.003410,262.259521 
	C62.959751,262.502411 62.920380,262.993774 62.651077,263.201904 
	C58.352272,269.384918 57.107086,275.878418 58.713043,282.918121 
	C60.564457,291.033783 65.489220,296.236084 73.663063,297.795380 
	C81.903137,299.367310 88.907059,296.346527 92.751053,289.138275 
	C95.282310,284.391724 95.622559,278.476776 97.206787,272.890869 
	C99.890953,270.555725 101.350693,272.128784 103.292633,273.773560 
	C110.207291,279.630035 117.317192,285.257843 124.402916,290.909851 
	C128.817017,294.430847 133.337784,294.917236 138.051453,291.269745 
	C145.033539,300.122894 152.380112,302.677856 161.296829,299.551392 
	C169.094650,296.817230 174.177887,288.836151 173.783966,279.373077 
	C173.654541,276.263702 172.720627,273.187805 172.599304,270.096405 
	C176.018402,269.892395 178.990005,269.594086 181.967819,269.505524 
	C187.299179,269.346924 190.309402,266.528503 190.972580,261.419159 
	C191.649658,256.202576 191.796265,250.917130 192.473999,245.700653 
	C192.682159,244.098450 193.653229,241.474579 194.651886,241.282990 
	C199.997772,240.257263 205.462875,239.852783 210.987518,239.556610 
	C216.079254,248.465790 222.360107,256.570038 225.786560,265.740814 
	C232.447449,283.568329 237.506561,301.994354 243.265945,320.531555 
	C243.922226,322.937866 244.384338,325.049408 245.190720,327.020111 
	C247.663666,333.063751 250.268646,339.053406 252.882339,345.429535 
	C259.091797,361.195862 270.109467,370.818726 286.518402,373.968811 
	C310.525360,378.577545 334.535583,377.586884 358.544342,373.929565 
	C397.444153,368.003876 431.133179,352.782349 455.927734,320.770264 
	C468.422119,304.638885 478.486328,287.665283 479.213959,266.720093 
	C479.488953,258.803741 478.436432,250.841293 477.989075,242.899841 
M168.405548,372.055054 
	C167.742630,372.262878 167.079712,372.470703 165.813339,372.817902 
	C164.821411,373.783691 163.829468,374.749512 162.261337,376.162201 
	C162.198822,380.486206 161.481262,384.938049 162.291977,389.091614 
	C162.884262,392.126099 165.888809,393.853058 169.361481,391.932190 
	C174.971146,388.829285 176.413101,378.734772 171.716171,373.388214 
	C170.837296,373.032227 169.958420,372.676239 168.405548,372.055054 
M116.306259,424.248810 
	C112.638626,430.443573 113.526711,436.566620 118.595314,440.031250 
	C121.676170,442.137146 125.926697,441.302124 128.230301,438.138397 
	C131.332764,433.877502 130.358475,426.995636 125.891235,423.363831 
	C122.875290,420.912018 119.703033,420.431366 117.003716,423.999207 
	C117.003716,423.999207 116.981384,423.956085 116.306259,424.248810 
M300.410461,394.056122 
	C300.241425,394.340210 300.072418,394.624298 299.301788,395.380280 
	C298.847168,397.284882 297.750092,399.310669 298.081299,401.067078 
	C298.644867,404.055756 299.414795,407.567719 301.402649,409.554199 
	C303.103088,411.253387 308.124542,412.521912 309.060760,411.524689 
	C311.416656,409.015167 313.418640,405.156372 313.535034,401.768799 
	C313.794128,394.225952 307.018646,390.365082 300.410461,394.056122 
M102.520630,342.013062 
	C110.193306,347.212860 117.926804,346.640137 125.402496,341.812103 
	C131.680008,337.757904 137.829269,333.471832 143.775513,328.947021 
	C150.050797,324.171844 151.326355,319.574554 148.099091,315.564301 
	C145.069382,311.799530 140.890884,312.156036 134.357376,316.643280 
	C129.424927,320.030884 124.465195,323.380066 119.474998,326.681946 
	C115.380310,329.391357 111.377548,329.180450 107.565979,326.039429 
	C103.460434,322.656158 99.404579,319.209900 95.229118,315.915222 
	C93.158836,314.281677 91.044968,312.480438 88.643860,311.532990 
	C82.640427,309.164062 77.429306,313.431396 79.122307,319.630066 
	C80.028290,322.947174 82.254684,326.371643 84.844765,328.663025 
	C90.178986,333.382141 96.157433,337.373047 102.520630,342.013062 
M216.956100,278.593658 
	C211.205215,275.124481 206.542648,276.603973 205.697998,283.062103 
	C205.211914,286.778503 206.581451,291.049805 208.181778,294.589325 
	C208.932510,296.249786 212.447632,297.905487 214.267410,297.512726 
	C216.397537,297.053009 218.836716,294.695129 219.740921,292.565765 
	C221.735474,287.868835 220.862732,283.154388 216.956100,278.593658 
M48.181316,296.419098 
	C44.023830,291.609314 39.971764,291.104187 37.079403,295.035095 
	C34.121204,299.055481 34.303867,306.096924 38.124962,309.225464 
	C40.066715,310.815277 43.529972,312.221832 45.574352,311.535034 
	C47.576065,310.862610 49.453087,307.578339 49.909721,305.161682 
	C50.390476,302.617432 49.123962,299.742981 48.181316,296.419098 
M211.099930,348.547424 
	C206.662842,348.119171 204.074722,350.470306 203.270218,354.488892 
	C202.365402,359.008759 202.489395,363.714478 206.829834,366.546326 
	C208.217209,367.451538 211.226761,367.370239 212.660263,366.446411 
	C219.020004,362.347992 218.424026,352.722473 211.099930,348.547424 
z"/>
<path fill="#DC0D27" opacity="1.000000" stroke="none" 
	d="
M182.448746,139.185974 
	C200.564224,125.290337 220.812622,115.650238 242.999176,110.681831 
	C254.490570,108.108475 266.404755,107.345200 278.160431,106.061546 
	C284.397034,105.380554 290.702209,105.071297 296.977936,105.050407 
	C318.975830,104.977188 340.758759,106.938797 361.970062,113.140312 
	C366.677948,114.516731 371.170441,116.629913 375.682739,118.951965 
	C374.618286,123.160507 373.271637,126.767288 372.718994,130.491882 
	C371.318054,139.933640 366.482513,145.876663 357.292664,149.241776 
	C342.468292,154.670105 327.921204,160.869843 313.335083,166.931534 
	C286.589813,178.046295 293.745697,177.900101 263.470184,172.771667 
	C261.995270,172.521835 260.519165,172.253006 259.067383,171.896301 
	C240.519119,167.338867 221.887253,163.080017 203.493271,157.966080 
	C199.013458,156.720596 194.980850,153.026794 191.361298,149.770920 
	C187.964844,146.715729 185.386871,142.750671 182.448746,139.185974 
z"/>
<path fill="#98B615" opacity="1.000000" stroke="none" 
	d="
M38.131828,229.901016 
	C44.363300,218.009735 54.661316,210.200745 65.621826,203.301880 
	C76.882187,196.214279 88.876732,190.448593 101.983887,187.615433 
	C106.197525,186.704620 107.196625,184.680771 107.058960,180.755615 
	C106.528702,165.637115 111.995621,152.917862 122.965248,142.530289 
	C127.317207,138.409241 138.565887,139.372894 141.684937,144.486816 
	C142.369431,145.609116 141.657608,148.205750 140.747665,149.556976 
	C138.351257,153.115540 135.206909,156.178177 132.882248,159.775528 
	C129.115250,165.604874 126.802628,171.909012 129.123138,179.007050 
	C130.008667,181.715683 131.226883,183.572052 134.791580,183.138687 
	C137.502228,182.809158 140.352859,183.631134 143.971069,184.001923 
	C151.546005,185.389236 158.291077,186.715378 165.300293,188.276199 
	C171.403214,191.028931 177.242004,193.546982 183.285980,196.320938 
	C190.996048,202.655807 198.500946,208.734772 206.170273,215.111603 
	C207.844742,217.648132 209.354782,219.886795 210.426178,222.111130 
	C200.443192,221.058456 190.911346,219.870178 181.346939,219.072525 
	C178.453781,218.831268 175.470398,219.672089 172.528336,220.017273 
	C173.391281,222.740921 174.254227,225.464584 175.265167,228.497620 
	C179.671875,237.972488 182.978531,247.391113 182.677216,257.683472 
	C171.252197,256.589905 161.070786,253.744736 153.496902,244.796234 
	C151.705887,242.680145 149.104736,241.249756 146.876251,239.503937 
	C145.596207,242.080170 144.307938,244.652390 143.047653,247.238251 
	C142.908081,247.524597 142.928772,247.888901 142.874313,248.216919 
	C141.337509,257.470215 137.060120,265.518738 131.553238,272.908142 
	C130.623688,274.155457 127.489693,275.349823 126.538612,274.743164 
	C117.845764,269.198486 109.941727,262.857300 108.914742,251.435730 
	C108.840767,250.613007 108.835785,249.648270 108.404739,249.019730 
	C107.252518,247.339493 106.114845,244.862671 104.539749,244.480255 
	C102.963921,244.097656 100.545540,245.501190 99.077293,246.785690 
	C97.240692,248.392456 96.119698,250.785049 94.476006,252.649994 
	C87.053085,261.072052 79.471016,269.295868 67.063721,269.615967 
	C66.639252,266.030273 66.302177,262.873047 66.042557,259.320831 
	C65.932076,251.552170 67.773712,244.807724 72.562836,238.696121 
	C74.046982,236.732254 75.604874,235.112701 76.456360,233.181671 
	C77.298866,231.270996 77.428398,229.045929 77.870667,226.958771 
	C75.854691,227.144302 73.827003,227.247345 71.825043,227.531555 
	C66.823341,228.241638 61.855736,229.379456 56.832897,229.705429 
	C50.621140,230.108566 44.367420,229.865097 38.131828,229.901016 
z"/>
<path fill="#A80207" opacity="1.000000" stroke="none" 
	d="
M183.080795,196.065018 
	C177.242004,193.546982 171.403214,191.028931 165.477722,187.990723 
	C168.590103,183.051682 172.003738,178.769608 174.931931,174.177948 
	C178.307404,168.884979 177.891037,165.448486 173.894379,160.616013 
	C171.685791,157.945526 169.351212,155.379227 167.073425,152.765961 
	C172.043839,148.340225 177.014252,143.914490 182.216705,139.337372 
	C185.386871,142.750671 187.964844,146.715729 191.361298,149.770920 
	C194.980850,153.026794 199.013458,156.720596 203.493271,157.966080 
	C221.887253,163.080017 240.519119,167.338867 259.067383,171.896301 
	C260.519165,172.253006 261.995270,172.521835 263.470184,172.771667 
	C293.745697,177.900101 286.589813,178.046295 313.335083,166.931534 
	C327.921204,160.869843 342.468292,154.670105 357.292664,149.241776 
	C366.482513,145.876663 371.318054,139.933640 372.718994,130.491882 
	C373.271637,126.767288 374.618286,123.160507 375.890259,119.263870 
	C381.999542,122.102402 387.821899,125.177132 393.697418,128.908997 
	C389.146027,140.547028 386.726776,150.909180 395.357330,161.772797 
	C414.170990,185.454193 432.212646,209.748566 450.625336,233.749817 
	C451.747284,235.212311 453.354523,236.302551 455.319305,238.099533 
	C456.723267,234.279938 458.101135,231.419235 458.817596,228.401489 
	C460.426117,221.626648 461.706238,214.773819 463.119995,207.952728 
	C466.431824,214.599380 469.744263,221.245743 473.054138,227.893356 
	C473.271484,228.329865 473.469788,228.775848 473.620392,229.862656 
	C472.014496,236.013580 470.465118,241.519272 468.457092,247.018661 
	C456.945465,246.690399 445.892548,246.368423 434.637634,245.920410 
	C434.042206,245.521561 433.648773,245.248749 433.111115,244.650269 
	C423.467316,230.865875 414.044220,217.352386 404.444672,203.965408 
	C396.398712,192.745056 388.165009,181.658951 379.978180,170.540100 
	C375.965027,165.089737 370.687683,163.640747 364.577087,166.430420 
	C346.882019,174.508728 329.228790,182.680389 311.620544,190.946198 
	C306.561523,193.321045 304.075623,197.611038 304.981659,203.182632 
	C306.873932,214.819550 309.073181,226.406540 311.078125,238.007584 
	C311.009949,238.001114 310.873413,237.990204 310.464233,237.941742 
	C303.413483,237.263565 296.771881,236.633865 290.068115,236.013000 
	C290.005920,236.021835 289.881927,236.042053 289.858521,235.644318 
	C288.008636,227.635696 285.907806,220.077789 284.425507,212.400482 
	C282.590210,202.894806 276.975098,197.574844 267.743591,195.487305 
	C247.119644,190.823608 226.530243,186.006775 205.898804,181.376862 
	C197.928009,179.588165 191.424255,181.603424 187.381973,189.330612 
	C186.151917,191.681961 184.525620,193.826019 183.080795,196.065018 
z"/>
<path fill="#DC0206" opacity="1.000000" stroke="none" 
	d="
M468.915771,247.024948 
	C470.465118,241.519272 472.014496,236.013580 473.765686,230.188232 
	C475.280212,233.957703 476.592865,238.046829 477.947327,242.517914 
	C478.436432,250.841293 479.488953,258.803741 479.213959,266.720093 
	C478.486328,287.665283 468.422119,304.638885 455.927734,320.770264 
	C431.133179,352.782349 397.444153,368.003876 358.544342,373.929565 
	C334.535583,377.586884 310.525360,378.577545 286.518402,373.968811 
	C270.109467,370.818726 259.091797,361.195862 253.298920,345.441528 
	C256.752869,345.717590 259.835480,346.434509 262.950073,346.962891 
	C289.095001,351.398468 315.302277,350.362427 341.573120,348.157562 
	C381.715820,344.788513 415.642242,329.198242 442.184601,298.389343 
	C455.153168,283.336182 463.523987,265.977234 468.915771,247.024948 
z"/>
<path fill="#DC0D27" opacity="1.000000" stroke="none" 
	d="
M463.196930,207.609711 
	C461.706238,214.773819 460.426117,221.626648 458.817596,228.401489 
	C458.101135,231.419235 456.723267,234.279938 455.319305,238.099533 
	C453.354523,236.302551 451.747284,235.212311 450.625336,233.749817 
	C432.212646,209.748566 414.170990,185.454193 395.357330,161.772797 
	C386.726776,150.909180 389.146027,140.547028 393.863403,129.206390 
	C401.058899,133.813950 408.752655,138.113663 415.080322,143.905807 
	C424.465942,152.497025 433.586151,161.584122 441.514557,171.503052 
	C449.345032,181.299484 455.598358,192.363495 462.411041,202.956635 
	C463.148804,204.103821 463.007416,205.816376 463.196930,207.609711 
z"/>
<path fill="#DC0E27" opacity="1.000000" stroke="none" 
	d="
M166.756989,152.933945 
	C169.351212,155.379227 171.685791,157.945526 173.894379,160.616013 
	C177.891037,165.448486 178.307404,168.884979 174.931931,174.177948 
	C172.003738,178.769608 168.590103,183.051682 165.213593,187.756042 
	C158.291077,186.715378 151.546005,185.389236 144.394287,183.962219 
	C151.471954,173.608215 158.956253,163.355072 166.756989,152.933945 
z"/>
<path fill="#C20909" opacity="1.000000" stroke="none" 
	d="
M72.327133,238.903992 
	C67.773712,244.807724 65.932076,251.552170 65.772652,259.478455 
	C64.632545,260.692963 63.839809,261.354767 63.047070,262.016602 
	C63.788662,256.467987 61.012302,254.910614 55.819061,254.041931 
	C50.158325,253.095047 44.787502,250.414963 39.123741,248.177719 
	C40.625248,243.917618 42.293304,239.970230 44.376198,235.579910 
	C48.170067,235.678009 51.539444,236.291382 54.930283,236.743988 
	C60.722145,237.517090 66.527466,238.189362 72.327133,238.903992 
z"/>
<path fill="#769936" opacity="1.000000" stroke="none" 
	d="
M72.562836,238.696121 
	C66.527466,238.189362 60.722145,237.517090 54.930283,236.743988 
	C51.539444,236.291382 48.170067,235.678009 44.356133,235.217682 
	C41.127903,234.840927 37.794518,235.066391 38.114677,230.297134 
	C44.367420,229.865097 50.621140,230.108566 56.832897,229.705429 
	C61.855736,229.379456 66.823341,228.241638 71.825043,227.531555 
	C73.827003,227.247345 75.854691,227.144302 77.870667,226.958771 
	C77.428398,229.045929 77.298866,231.270996 76.456360,233.181671 
	C75.604874,235.112701 74.046982,236.732254 72.562836,238.696121 
z"/>
<path fill="#A80001" opacity="1.000000" stroke="none" 
	d="
M468.457092,247.018661 
	C463.523987,265.977234 455.153168,283.336182 442.184601,298.389343 
	C415.642242,329.198242 381.715820,344.788513 341.573120,348.157562 
	C315.302277,350.362427 289.095001,351.398468 262.950073,346.962891 
	C259.835480,346.434509 256.752869,345.717590 253.238876,345.076050 
	C250.268646,339.053406 247.663666,333.063751 245.190720,327.020111 
	C244.384338,325.049408 243.922226,322.937866 243.631958,320.540131 
	C261.284149,326.112061 279.006378,329.194916 297.390717,328.109192 
	C305.241180,327.645569 306.895844,326.080292 305.739868,318.331238 
	C304.366180,309.122711 302.975952,299.906738 301.201965,290.769897 
	C297.652222,272.487335 293.836304,254.256424 290.130280,236.004181 
	C296.771881,236.633865 303.413483,237.263565 310.577087,238.323761 
	C312.406708,245.285156 313.548096,251.854645 315.052917,258.339783 
	C319.642303,278.118011 324.328827,297.874084 329.074585,317.615448 
	C330.380127,323.046295 333.741577,325.481506 339.643219,325.128754 
	C355.291718,324.193329 370.102539,319.824127 384.801697,314.868774 
	C408.473724,306.888428 425.492950,290.861053 438.848969,270.315948 
	C442.333588,264.955627 442.517273,259.853699 439.270813,254.421295 
	C437.652832,251.713913 436.308014,248.843246 434.839630,246.046448 
	C445.892548,246.368423 456.945465,246.690399 468.457092,247.018661 
z"/>
<path fill="#DC0205" opacity="1.000000" stroke="none" 
	d="
M290.068115,236.013000 
	C293.836304,254.256424 297.652222,272.487335 301.201965,290.769897 
	C302.975952,299.906738 304.366180,309.122711 305.739868,318.331238 
	C306.895844,326.080292 305.241180,327.645569 297.390717,328.109192 
	C279.006378,329.194916 261.284149,326.112061 243.595245,320.180969 
	C237.506561,301.994354 232.447449,283.568329 225.786560,265.740814 
	C222.360107,256.570038 216.079254,248.465790 211.004822,239.239563 
	C210.930817,238.389191 210.940277,238.178833 210.896881,237.617340 
	C209.221512,233.854324 207.598969,230.442459 206.301270,226.877533 
	C208.561966,225.673431 211.793594,225.816650 210.864822,222.125443 
	C209.354782,219.886795 207.844742,217.648132 206.475372,215.020798 
	C207.747955,214.810013 208.955536,214.792267 210.000046,215.196198 
	C219.890518,219.020981 229.722839,222.997559 239.634842,226.764786 
	C246.096588,229.220673 252.502716,232.376724 259.219299,233.478638 
	C269.308807,235.133926 279.648560,235.263657 289.881927,236.042053 
	C289.881927,236.042053 290.005920,236.021835 290.068115,236.013000 
z"/>
<path fill="#2E2B28" opacity="1.000000" stroke="none" 
	d="
M102.195709,341.838318 
	C96.157433,337.373047 90.178986,333.382141 84.844765,328.663025 
	C82.254684,326.371643 80.028290,322.947174 79.122307,319.630066 
	C77.429306,313.431396 82.640427,309.164062 88.643860,311.532990 
	C91.044968,312.480438 93.158836,314.281677 95.229118,315.915222 
	C99.404579,319.209900 103.460434,322.656158 107.565979,326.039429 
	C111.377548,329.180450 115.380310,329.391357 119.474998,326.681946 
	C124.465195,323.380066 129.424927,320.030884 134.357376,316.643280 
	C140.890884,312.156036 145.069382,311.799530 148.099091,315.564301 
	C151.326355,319.574554 150.050797,324.171844 143.775513,328.947021 
	C137.829269,333.471832 131.680008,337.757904 125.402496,341.812103 
	C117.926804,346.640137 110.193306,347.212860 102.195709,341.838318 
z"/>
<path fill="#2D2B28" opacity="1.000000" stroke="none" 
	d="
M172.154587,270.096619 
	C172.720627,273.187805 173.654541,276.263702 173.783966,279.373077 
	C174.177887,288.836151 169.094650,296.817230 161.296829,299.551392 
	C152.380112,302.677856 145.033539,300.122894 138.079819,291.040070 
	C137.901276,290.541016 137.942459,290.078857 138.232513,289.900665 
	C142.673386,285.726471 147.631699,282.274902 150.781143,277.603790 
	C155.232758,271.001312 159.997314,267.232574 168.178955,269.953857 
	C169.217285,270.299194 170.477219,269.978149 171.761642,270.009949 
	C171.888794,270.054077 172.154587,270.096619 172.154587,270.096619 
z"/>
<path fill="#2D2B28" opacity="1.000000" stroke="none" 
	d="
M96.943893,273.084991 
	C95.622559,278.476776 95.282310,284.391724 92.751053,289.138275 
	C88.907059,296.346527 81.903137,299.367310 73.663063,297.795380 
	C65.489220,296.236084 60.564457,291.033783 58.713043,282.918121 
	C57.107086,275.878418 58.352272,269.384918 62.671520,263.640320 
	C63.159710,266.332886 62.830288,269.004333 63.700584,271.200348 
	C64.626671,273.537170 66.456573,276.972168 68.293877,277.247833 
	C77.960480,278.697998 87.776421,279.433380 96.443695,272.897583 
	C96.610657,272.959412 96.943886,273.084991 96.943893,273.084991 
z"/>
<path fill="#C10907" opacity="1.000000" stroke="none" 
	d="
M210.949722,237.968475 
	C210.940277,238.178833 210.930817,238.389191 210.904068,238.916595 
	C205.462875,239.852783 199.997772,240.257263 194.651886,241.282990 
	C193.653229,241.474579 192.682159,244.098450 192.473999,245.700653 
	C191.796265,250.917130 191.649658,256.202576 190.972580,261.419159 
	C190.309402,266.528503 187.299179,269.346924 181.967819,269.505524 
	C178.990005,269.594086 176.018402,269.892395 172.599304,270.096405 
	C172.154587,270.096619 171.888794,270.054077 171.688675,269.687134 
	C169.951019,266.963287 168.413483,264.606415 167.373749,262.350403 
	C171.114548,262.918335 174.344666,263.535095 177.603729,263.815887 
	C182.011932,264.195801 184.175003,262.309174 183.085617,257.660553 
	C182.978531,247.391113 179.671875,237.972488 175.677521,228.493530 
	C183.949936,228.138931 191.957993,228.097824 200.156067,228.328857 
	C203.880630,231.723480 207.415176,234.845978 210.949722,237.968475 
z"/>
<path fill="#BF0807" opacity="1.000000" stroke="none" 
	d="
M97.206787,272.890869 
	C96.943886,273.084991 96.610657,272.959412 96.472260,272.496765 
	C95.517815,269.339783 94.701759,266.645477 94.053009,263.660461 
	C96.954536,260.770569 99.688766,258.171356 103.012184,255.012054 
	C106.654839,266.341064 114.303230,273.595734 123.314285,279.873291 
	C127.629585,282.879517 131.086136,284.013580 134.547684,279.449371 
	C135.733902,283.265350 136.838181,286.672119 137.942459,290.078857 
	C137.942459,290.078857 137.901276,290.541016 137.872910,290.770691 
	C133.337784,294.917236 128.817017,294.430847 124.402916,290.909851 
	C117.317192,285.257843 110.207291,279.630035 103.292633,273.773560 
	C101.350693,272.128784 99.890953,270.555725 97.206787,272.890869 
z"/>
<path fill="#220908" opacity="1.000000" stroke="none" 
	d="
M93.885712,263.951172 
	C94.701759,266.645477 95.517815,269.339783 96.305298,272.434906 
	C87.776421,279.433380 77.960480,278.697998 68.293877,277.247833 
	C66.456573,276.972168 64.626671,273.537170 63.700584,271.200348 
	C62.830288,269.004333 63.159710,266.332886 62.940826,263.432190 
	C62.920380,262.993774 62.959751,262.502411 63.003410,262.259521 
	C63.839809,261.354767 64.632545,260.692963 65.695190,259.873474 
	C66.302177,262.873047 66.639252,266.030273 67.050194,269.999573 
	C67.585396,274.908173 70.613815,274.048767 73.147026,273.800751 
	C81.223145,273.010071 87.523705,268.398071 93.885712,263.951172 
z"/>
<path fill="#FFE3C4" opacity="1.000000" stroke="none" 
	d="
M217.218979,278.849426 
	C220.862732,283.154388 221.735474,287.868835 219.740921,292.565765 
	C218.836716,294.695129 216.397537,297.053009 214.267410,297.512726 
	C212.447632,297.905487 208.932510,296.249786 208.181778,294.589325 
	C206.581451,291.049805 205.211914,286.778503 205.697998,283.062103 
	C206.542648,276.603973 211.205215,275.124481 217.218979,278.849426 
M211.959122,287.491272 
	C212.538788,287.184387 213.422287,287.019073 213.643112,286.545044 
	C214.409180,284.900696 215.091965,283.175171 215.405197,281.409363 
	C215.450577,281.153473 212.865524,279.802643 212.257401,280.180664 
	C210.631012,281.191650 209.130997,282.713470 208.235565,284.383423 
	C208.002365,284.818359 210.166565,286.538757 211.959122,287.491272 
z"/>
<path fill="#FFE5C6" opacity="1.000000" stroke="none" 
	d="
M300.889954,393.885345 
	C307.018646,390.365082 313.794128,394.225952 313.535034,401.768799 
	C313.418640,405.156372 311.416656,409.015167 309.060760,411.524689 
	C308.124542,412.521912 303.103088,411.253387 301.402649,409.554199 
	C299.414795,407.567719 298.644867,404.055756 298.081299,401.067078 
	C297.750092,399.310669 298.847168,397.284882 299.728973,395.249023 
	C300.156158,395.117798 300.412323,395.323059 300.316284,395.694244 
	C299.709351,399.335388 300.796356,401.630524 304.349213,400.468811 
	C305.821808,399.987305 306.646149,397.523376 307.765320,395.960968 
	C305.627167,395.464020 303.488983,394.967041 301.237305,394.322571 
	C301.123749,394.175079 300.889954,393.885345 300.889954,393.885345 
z"/>
<path fill="#FFE4C4" opacity="1.000000" stroke="none" 
	d="
M116.958931,423.981628 
	C119.703033,420.431366 122.875290,420.912018 125.891235,423.363831 
	C130.358475,426.995636 131.332764,433.877502 128.230301,438.138397 
	C125.926697,441.302124 121.676170,442.137146 118.595314,440.031250 
	C113.526711,436.566620 112.638626,430.443573 116.640320,424.479675 
	C117.101173,426.722748 117.067245,428.770569 117.497696,430.715576 
	C117.578552,431.080933 120.083893,431.545288 120.491440,431.089172 
	C121.999443,429.401581 123.097397,427.347626 124.349464,425.431366 
	C122.540085,424.874512 120.746132,424.256165 118.912506,423.795929 
	C118.314522,423.645874 117.613060,423.908020 116.958931,423.981628 
z"/>
<path fill="#FFE2C2" opacity="1.000000" stroke="none" 
	d="
M48.401100,296.715942 
	C49.123962,299.742981 50.390476,302.617432 49.909721,305.161682 
	C49.453087,307.578339 47.576065,310.862610 45.574352,311.535034 
	C43.529972,312.221832 40.066715,310.815277 38.124962,309.225464 
	C34.303867,306.096924 34.121204,299.055481 37.079403,295.035095 
	C39.971764,291.104187 44.023830,291.609314 48.401100,296.715942 
M38.040352,303.449005 
	C41.914463,306.426575 43.754311,303.298187 45.262234,300.670380 
	C45.761646,299.800049 44.582180,297.966339 44.170311,296.573090 
	C41.957466,297.876251 39.690884,299.101868 37.585812,300.560577 
	C37.243870,300.797516 37.617397,302.067017 38.040352,303.449005 
z"/>
<path fill="#FFE4C4" opacity="1.000000" stroke="none" 
	d="
M171.985809,373.896484 
	C176.413101,378.734772 174.971146,388.829285 169.361481,391.932190 
	C165.888809,393.853058 162.884262,392.126099 162.291977,389.091614 
	C161.481262,384.938049 162.198822,380.486206 162.585999,376.325256 
	C164.201767,377.785614 165.477997,380.158356 166.786835,380.176514 
	C170.551666,380.228668 172.078369,377.523102 171.985809,373.896484 
z"/>
<path fill="#FFE3C3" opacity="1.000000" stroke="none" 
	d="
M211.462708,348.633270 
	C218.424026,352.722473 219.020004,362.347992 212.660263,366.446411 
	C211.226761,367.370239 208.217209,367.451538 206.829834,366.546326 
	C202.489395,363.714478 202.365402,359.008759 203.270218,354.488892 
	C204.074722,350.470306 206.662842,348.119171 211.462708,348.633270 
M211.400085,351.216766 
	C209.563370,352.397797 207.240646,353.213715 206.010941,354.850739 
	C204.414536,356.975922 205.515076,359.428314 208.204346,359.275574 
	C209.946533,359.176605 212.023758,357.449646 213.086136,355.870422 
	C213.677155,354.991913 212.495270,352.920654 211.400085,351.216766 
z"/>
<path fill="#FFFCF9" opacity="1.000000" stroke="none" 
	d="
M171.850983,373.642334 
	C172.078369,377.523102 170.551666,380.228668 166.786835,380.176514 
	C165.477997,380.158356 164.201767,377.785614 162.874084,376.101807 
	C163.829468,374.749512 164.821411,373.783691 166.453888,372.793854 
	C167.756149,372.619965 168.417847,372.470123 169.079544,372.320282 
	C169.958420,372.676239 170.837296,373.032227 171.850983,373.642334 
z"/>
<path fill="#FFE4C4" opacity="1.000000" stroke="none" 
	d="
M168.742554,372.187683 
	C168.417847,372.470123 167.756149,372.619965 166.755615,372.724182 
	C167.079712,372.470703 167.742630,372.262878 168.742554,372.187683 
z"/>
<path fill="#FFE5C6" opacity="1.000000" stroke="none" 
	d="
M300.029785,395.013092 
	C300.072418,394.624298 300.241425,394.340210 300.650208,393.970734 
	C300.889954,393.885345 301.123749,394.175079 301.074585,394.457581 
	C300.812714,394.925598 300.608337,395.119904 300.412323,395.323059 
	C300.412323,395.323059 300.156158,395.117798 300.029785,395.013092 
z"/>
<path fill="#DC0D27" opacity="1.000000" stroke="none" 
	d="
M289.858521,235.644318 
	C279.648560,235.263657 269.308807,235.133926 259.219299,233.478638 
	C252.502716,232.376724 246.096588,229.220673 239.634842,226.764786 
	C229.722839,222.997559 219.890518,219.020981 210.000046,215.196198 
	C208.955536,214.792267 207.747955,214.810013 206.310944,214.722916 
	C198.500946,208.734772 190.996048,202.655807 183.285980,196.320938 
	C184.525620,193.826019 186.151917,191.681961 187.381973,189.330612 
	C191.424255,181.603424 197.928009,179.588165 205.898804,181.376862 
	C226.530243,186.006775 247.119644,190.823608 267.743591,195.487305 
	C276.975098,197.574844 282.590210,202.894806 284.425507,212.400482 
	C285.907806,220.077789 288.008636,227.635696 289.858521,235.644318 
z"/>
<path fill="#769635" opacity="1.000000" stroke="none" 
	d="
M94.053009,263.660461 
	C87.523705,268.398071 81.223145,273.010071 73.147026,273.800751 
	C70.613815,274.048767 67.585396,274.908173 67.137573,270.428070 
	C79.471016,269.295868 87.053085,261.072052 94.476006,252.649994 
	C96.119698,250.785049 97.240692,248.392456 99.077293,246.785690 
	C100.545540,245.501190 102.963921,244.097656 104.539749,244.480255 
	C106.114845,244.862671 107.252518,247.339493 108.404739,249.019730 
	C108.835785,249.648270 108.840767,250.613007 108.914742,251.435730 
	C109.941727,262.857300 117.845764,269.198486 126.538612,274.743164 
	C127.489693,275.349823 130.623688,274.155457 131.553238,272.908142 
	C137.060120,265.518738 141.337509,257.470215 142.874313,248.216919 
	C142.928772,247.888901 142.908081,247.524597 143.047653,247.238251 
	C144.307938,244.652390 145.596207,242.080170 146.876251,239.503937 
	C149.104736,241.249756 151.705887,242.680145 153.496902,244.796234 
	C161.070786,253.744736 171.252197,256.589905 182.677216,257.683472 
	C184.175003,262.309174 182.011932,264.195801 177.603729,263.815887 
	C174.344666,263.535095 171.114548,262.918335 167.142212,262.256042 
	C161.168091,259.704224 155.923294,257.347595 150.699448,255.000397 
	C145.158554,263.205658 139.812164,271.122894 134.465759,279.040131 
	C131.086136,284.013580 127.629585,282.879517 123.314285,279.873291 
	C114.303230,273.595734 106.654839,266.341064 103.012184,255.012054 
	C99.688766,258.171356 96.954536,260.770569 94.053009,263.660461 
z"/>
<path fill="#769836" opacity="1.000000" stroke="none" 
	d="
M199.966049,228.056702 
	C191.957993,228.097824 183.949936,228.138931 175.529526,228.184143 
	C174.254227,225.464584 173.391281,222.740921 172.528336,220.017273 
	C175.470398,219.672089 178.453781,218.831268 181.346939,219.072525 
	C190.911346,219.870178 200.443192,221.058456 210.426178,222.111130 
	C211.793594,225.816650 208.561966,225.673431 205.917206,226.851410 
	C203.460876,227.337784 201.713470,227.697250 199.966049,228.056702 
z"/>
<path fill="#DC0205" opacity="1.000000" stroke="none" 
	d="
M434.637634,245.920410 
	C436.308014,248.843246 437.652832,251.713913 439.270813,254.421295 
	C442.517273,259.853699 442.333588,264.955627 438.848969,270.315948 
	C425.492950,290.861053 408.473724,306.888428 384.801697,314.868774 
	C370.102539,319.824127 355.291718,324.193329 339.643219,325.128754 
	C333.741577,325.481506 330.380127,323.046295 329.074585,317.615448 
	C324.328827,297.874084 319.642303,278.118011 315.052917,258.339783 
	C313.548096,251.854645 312.406708,245.285156 310.986267,238.372223 
	C310.873413,237.990204 311.009949,238.001114 311.511536,238.004868 
	C323.938232,238.724335 335.864044,239.428604 347.788208,240.159180 
	C358.552185,240.818665 369.310944,241.570358 380.078247,242.168167 
	C397.801300,243.152191 415.529388,244.044800 433.255371,244.975937 
	C433.648773,245.248749 434.042206,245.521561 434.637634,245.920410 
z"/>
<path fill="#DC0D27" opacity="1.000000" stroke="none" 
	d="
M433.111115,244.650269 
	C415.529388,244.044800 397.801300,243.152191 380.078247,242.168167 
	C369.310944,241.570358 358.552185,240.818665 347.788208,240.159180 
	C335.864044,239.428604 323.938232,238.724335 311.579712,238.011337 
	C309.073181,226.406540 306.873932,214.819550 304.981659,203.182632 
	C304.075623,197.611038 306.561523,193.321045 311.620544,190.946198 
	C329.228790,182.680389 346.882019,174.508728 364.577087,166.430420 
	C370.687683,163.640747 375.965027,165.089737 379.978180,170.540100 
	C388.165009,181.658951 396.398712,192.745056 404.444672,203.965408 
	C414.044220,217.352386 423.467316,230.865875 433.111115,244.650269 
z"/>
<path fill="#A80303" opacity="1.000000" stroke="none" 
	d="
M200.156067,228.328842 
	C201.713470,227.697250 203.460876,227.337784 205.592346,227.004456 
	C207.598969,230.442459 209.221512,233.854324 210.896881,237.617340 
	C207.415176,234.845978 203.880630,231.723480 200.156067,228.328842 
z"/>
<path fill="#220808" opacity="1.000000" stroke="none" 
	d="
M134.547684,279.449371 
	C139.812164,271.122894 145.158554,263.205658 150.699448,255.000397 
	C155.923294,257.347595 161.168091,259.704224 166.644409,262.155212 
	C168.413483,264.606415 169.951019,266.963287 171.561523,269.643005 
	C170.477219,269.978149 169.217285,270.299194 168.178955,269.953857 
	C159.997314,267.232574 155.232758,271.001312 150.781143,277.603790 
	C147.631699,282.274902 142.673386,285.726471 138.232513,289.900665 
	C136.838181,286.672119 135.733902,283.265350 134.547684,279.449371 
z"/>
<path fill="#FFFDFA" opacity="1.000000" stroke="none" 
	d="
M211.594391,287.580017 
	C210.166565,286.538757 208.002365,284.818359 208.235565,284.383423 
	C209.130997,282.713470 210.631012,281.191650 212.257401,280.180664 
	C212.865524,279.802643 215.450577,281.153473 215.405197,281.409363 
	C215.091965,283.175171 214.409180,284.900696 213.643112,286.545044 
	C213.422287,287.019073 212.538788,287.184387 211.594391,287.580017 
z"/>
<path fill="#FFFEFE" opacity="1.000000" stroke="none" 
	d="
M300.316284,395.694244 
	C300.608337,395.119904 300.812714,394.925598 301.188141,394.605103 
	C303.488983,394.967041 305.627167,395.464020 307.765320,395.960968 
	C306.646149,397.523376 305.821808,399.987305 304.349213,400.468811 
	C300.796356,401.630524 299.709351,399.335388 300.316284,395.694244 
z"/>
<path fill="#FFFDFA" opacity="1.000000" stroke="none" 
	d="
M116.981323,423.990417 
	C117.613060,423.908020 118.314522,423.645874 118.912506,423.795929 
	C120.746132,424.256165 122.540085,424.874512 124.349464,425.431366 
	C123.097397,427.347626 121.999443,429.401581 120.491440,431.089172 
	C120.083893,431.545288 117.578552,431.080933 117.497696,430.715576 
	C117.067245,428.770569 117.101173,426.722748 116.977882,424.333313 
	C116.981384,423.956085 117.003716,423.999207 116.981323,423.990417 
z"/>
<path fill="#FFFDFA" opacity="1.000000" stroke="none" 
	d="
M37.850281,303.154114 
	C37.617397,302.067017 37.243870,300.797516 37.585812,300.560577 
	C39.690884,299.101868 41.957466,297.876251 44.170311,296.573090 
	C44.582180,297.966339 45.761646,299.800049 45.262234,300.670380 
	C43.754311,303.298187 41.914463,306.426575 37.850281,303.154114 
z"/>
<path fill="#FFFDFA" opacity="1.000000" stroke="none" 
	d="
M211.756256,351.301880 
	C212.495270,352.920654 213.677155,354.991913 213.086136,355.870422 
	C212.023758,357.449646 209.946533,359.176605 208.204346,359.275574 
	C205.515076,359.428314 204.414536,356.975922 206.010941,354.850739 
	C207.240646,353.213715 209.563370,352.397797 211.756256,351.301880 
z"/>
</svg>