<?xml version="1.0" standalone="no"?>
<!DOCTYPE svg PUBLIC "-//W3C//DTD SVG 20010904//EN"
 "http://www.w3.org/TR/2001/REC-SVG-20010904/DTD/svg10.dtd">
<svg version="1.0" xmlns="http://www.w3.org/2000/svg"
 width="120.000000pt" height="120.000000pt" viewBox="0 0 120.000000 120.000000"
 preserveAspectRatio="xMidYMid meet">

<g transform="translate(0.000000,120.000000) scale(0.100000,-0.100000)"
fill="#000000" stroke="none">
<path d="M148 940 l-23 -19 21 -21 c18 -18 25 -20 43 -11 26 14 27 47 2 61
-15 7 -25 5 -43 -10z"/>
<path d="M77 833 c-25 -7 -17 -24 24 -50 63 -41 70 -48 83 -87 l13 -38 22 31
c12 17 25 46 28 65 5 33 4 35 -33 45 -22 6 -59 11 -84 12 -33 0 -40 3 -25 8
11 5 45 6 76 3 31 -2 59 -1 62 4 5 10 -135 15 -166 7z"/>
<path d="M746 646 c-22 -49 -27 -54 -62 -58 -44 -6 -61 5 -105 65 -25 34 -28
36 -31 16 -2 -17 -20 -29 -73 -50 -62 -25 -71 -27 -82 -13 -18 24 -35 7 -29
-29 6 -31 5 -31 -13 7 l-19 39 -7 -56 c-8 -63 -12 -65 -88 -48 l-38 9 7 -36
c9 -52 51 -131 85 -163 26 -24 28 -30 19 -55 -6 -15 -12 -55 -13 -89 -2 -47 2
-65 16 -79 26 -27 16 -40 -34 -47 l-44 -6 51 -1 c44 -2 54 2 66 21 8 12 14 31
12 42 -1 11 -8 55 -14 97 -6 43 -8 87 -5 99 13 41 96 52 139 18 30 -24 32 -37
9 -77 -14 -24 -15 -34 -5 -58 10 -23 19 -29 45 -30 17 -1 84 -5 147 -10 101
-8 119 -7 150 9 38 19 92 22 121 7 16 -9 19 -22 19 -72 l0 -61 67 6 c74 7 111
27 50 27 -41 0 -42 3 -26 49 9 27 8 39 -6 72 -10 21 -15 42 -11 46 4 4 33 7
64 7 48 -1 53 1 30 8 -20 7 -28 16 -28 33 0 13 -4 26 -9 30 -6 3 -4 19 5 40
22 53 16 76 -8 30 -21 -41 -58 -93 -58 -82 0 3 11 23 25 43 26 39 31 54 16 54
-5 0 -11 10 -14 23 -4 12 -12 30 -20 41 -11 15 -17 17 -35 7 -19 -10 -24 -7
-48 28 -21 33 -24 43 -14 61 17 31 6 35 -29 10 -45 -31 -89 -35 -129 -10 -43
26 -47 41 -29 95 21 61 12 57 -17 -9z m-153 -40 c15 -19 27 -39 27 -43 0 -5
-17 -26 -38 -46 l-38 -37 -44 15 c-60 21 -84 43 -67 63 15 19 108 81 122 81 6
1 22 -15 38 -33z m172 -61 c31 -23 32 -26 24 -67 -4 -24 -8 -46 -9 -49 -1 -24
-200 -1 -200 23 0 23 65 99 89 104 14 3 31 7 36 9 21 7 29 4 60 -20z m-296
-129 c21 -19 30 -43 12 -31 -16 9 -101 126 -101 138 0 7 15 -11 34 -38 18 -28
43 -59 55 -69z m459 75 c7 -21 12 -43 12 -49 0 -10 -97 -38 -105 -30 -2 2 -7
22 -11 45 l-6 40 43 15 c24 9 47 16 50 17 3 0 11 -16 17 -38z m-283 -208 c33
-18 56 -33 51 -33 -17 0 -124 62 -157 92 l-34 30 40 -28 c22 -16 67 -43 100
-61z m365 -8 c-20 -24 -117 -55 -168 -54 -46 2 -46 2 14 10 34 4 84 19 110 33
58 30 60 30 44 11z m-265 -35 c13 -6 15 -9 5 -9 -8 0 -22 4 -30 9 -18 12 -2
12 25 0z"/>
<path d="M410 20 l-45 -7 60 -1 c33 -1 67 3 75 8 18 11 -17 11 -90 0z"/>
<path d="M850 20 l-65 -7 70 -1 c39 0 79 3 90 8 18 8 18 8 -5 8 -14 -1 -54 -4
-90 -8z"/>
</g>
</svg>
